<?xml version="1.0" standalone="no"?>
<!DOCTYPE svg PUBLIC "-//W3C//DTD SVG 20010904//EN"
 "http://www.w3.org/TR/2001/REC-SVG-20010904/DTD/svg10.dtd">
<svg version="1.0" xmlns="http://www.w3.org/2000/svg"
 width="100%" height="100%" viewBox="0 0 296 33"
 preserveAspectRatio="xMidYMid meet">
<g transform="translate(0.000000,33.000000) scale(0.100000,-0.100000)"
fill="#3c1319" stroke="none">
<path d="M95 223 c-39 -11 -65 -35 -65 -61 l0 -25 358 7 c431 9 1186 8 1597
-2 348 -8 674 -7 822 3 91 6 103 9 103 25 0 11 -3 21 -8 24 -13 8 -510 21
-757 19 -578 -4 -1342 -3 -1480 2 -292 10 -550 13 -570 8z"/>
</g>
</svg>