<?xml version="1.0" standalone="no"?>
<!DOCTYPE svg PUBLIC "-//W3C//DTD SVG 20010904//EN"
 "http://www.w3.org/TR/2001/REC-SVG-20010904/DTD/svg10.dtd">
<svg version="1.0" xmlns="http://www.w3.org/2000/svg"
 width="100%" height="100%" viewBox="0 0 346 42"
 preserveAspectRatio="xMidYMid meet">
<g transform="translate(0.000000,42.000000) scale(0.100000,-0.100000)"
fill="#a56799" stroke="none">
<path d="M2755 260 c-248 -20 -1037 -46 -1710 -56 -247 -4 -459 -10 -469 -14
-11 -4 187 -10 440 -14 707 -10 1447 -34 1753 -56 110 -8 131 -7 180 10 66 21
227 50 285 50 68 0 26 16 -74 28 -52 6 -129 21 -170 32 -99 28 -117 29 -235
20z"/>
</g>
</svg>