<?xml version="1.0" standalone="no"?>
<!DOCTYPE svg PUBLIC "-//W3C//DTD SVG 20010904//EN"
 "http://www.w3.org/TR/2001/REC-SVG-20010904/DTD/svg10.dtd">
 
<svg version="1.0" xmlns="http://www.w3.org/2000/svg"
 width="12rem" height="12rem" 
 preserveAspectRatio="xMinYMid meet" class="svg-content" viewBox="0 0 12rem 12rem">
      <defs>
        <linearGradient id="Gradient" x1="0" x2="100%" y1="0" y2="0"> 
        <stop offset="0%" stop-color="#F05160" />
        <stop offset="100%" stop-color="#F6916A" />
        </linearGradient>
      </defs>
<g transform="translate(0,206) scale(0.1,-0.1)"
fill="url(#Gradient)" stroke="none">
<path d="M1505 1730 c-179 -31 -308 -60 -435 -97 -113 -34 -290 -91 -315 -103
-11 -5 -44 -19 -72 -31 l-53 -21 0 -457 0 -457 -57 4 c-93 7 -166 -20 -229
-83 -56 -55 -72 -97 -59 -153 8 -37 62 -92 107 -108 41 -16 131 -17 180 -4 56
16 130 71 155 115 23 40 23 43 23 467 l0 427 81 26 c177 56 433 99 657 111
l122 7 0 -339 0 -340 -63 4 c-78 5 -131 -9 -193 -51 -119 -79 -125 -220 -13
-277 91 -47 213 -33 301 34 82 63 78 24 78 730 l0 626 -27 -1 c-16 -1 -100
-14 -188 -29z m105 -174 l0 -64 -37 -6 c-21 -3 -76 -10 -123 -16 -160 -20
-357 -61 -550 -115 -47 -13 -100 -26 -117 -30 -33 -7 -33 -7 -33 34 0 48 -13
40 180 105 160 55 214 70 330 97 80 18 294 55 338 58 8 1 12 -18 12 -63z"/>
</g>
</svg>